<?xml version="1.0" encoding="UTF-8" standalone="no"?>
<svg
   inkscape:version="1.3 (0e150ed6c4, 2023-07-21)"
   sodipodi:docname="paysdesherbiers_100.svg"
   viewBox="0 0 100.00033 103.674"
   height="103.674"
   width="100.00033"
   xml:space="preserve"
   id="svg2"
   version="1.1"
   xmlns:inkscape="http://www.inkscape.org/namespaces/inkscape"
   xmlns:sodipodi="http://sodipodi.sourceforge.net/DTD/sodipodi-0.dtd"
   xmlns="http://www.w3.org/2000/svg"
   xmlns:svg="http://www.w3.org/2000/svg"
   xmlns:rdf="http://www.w3.org/1999/02/22-rdf-syntax-ns#"
   xmlns:cc="http://creativecommons.org/ns#"
   xmlns:dc="http://purl.org/dc/elements/1.1/"><metadata
     id="metadata8"><rdf:RDF><cc:Work
         rdf:about=""><dc:format>image/svg+xml</dc:format><dc:type
           rdf:resource="http://purl.org/dc/dcmitype/StillImage" /></cc:Work></rdf:RDF></metadata><defs
     id="defs6"><clipPath
       id="clipPath18"
       clipPathUnits="userSpaceOnUse"><path
         id="path16"
         d="M 0,113.386 H 552.756 V 737.009 H 0 Z" /></clipPath><clipPath
       id="clipPath40"
       clipPathUnits="userSpaceOnUse"><path
         id="path38"
         d="m 74.852,573.307 h 136.254 v 141.26 H 74.852 Z" /></clipPath></defs><sodipodi:namedview
     inkscape:current-layer="g10"
     inkscape:window-maximized="1"
     inkscape:window-y="-8"
     inkscape:window-x="-8"
     inkscape:cy="106.55999"
     inkscape:cx="84.587794"
     inkscape:zoom="4.847035"
     fit-margin-bottom="0"
     fit-margin-right="0"
     fit-margin-left="0"
     fit-margin-top="0"
     showgrid="false"
     id="namedview4"
     inkscape:window-height="1369"
     inkscape:window-width="2560"
     inkscape:pageshadow="2"
     inkscape:pageopacity="0"
     guidetolerance="10"
     gridtolerance="10"
     objecttolerance="10"
     borderopacity="1"
     bordercolor="#666666"
     pagecolor="#ffffff"
     inkscape:showpageshadow="2"
     inkscape:pagecheckerboard="0"
     inkscape:deskcolor="#d1d1d1" /><g
     transform="matrix(1.3333333,0,0,-1.3333333,335.51598,986.60076)"
     inkscape:label="mag_50_ccph_interactif_page-a-page"
     inkscape:groupmode="layer"
     id="g10"><g
       transform="matrix(0.55044553,0,0,0.55044553,-292.8391,346.62053)"
       id="g286"><g
         id="g26"
         transform="translate(123.2386,647.9264)"
         style="display:inline"><path
           d="M 0,0 -1.378,9.171 -2.729,0 Z M -3.967,14.91 H 1.182 L 5.57,-7.877 H 1.294 L 0.451,-2.87 h -3.602 l -0.872,-5.007 h -4.36 z"
           style="display:inline;fill:#006246;fill-opacity:1;fill-rule:nonzero;stroke:none"
           id="path28" /></g><g
         id="g30"
         transform="translate(132.6293,649.0798)"
         style="display:inline"><path
           d="m 0,0 -4.546,13.757 h 4.36 l 2.55,-8.018 2.25,8.018 H 8.862 L 4.473,0 V -9.031 H 0 Z"
           style="display:inline;fill:#006246;fill-opacity:1;fill-rule:nonzero;stroke:none"
           id="path32" /></g><g
         id="g34"
         style="display:inline"><g
           id="g36"
           clip-path="url(#clipPath40)"><g
             id="g42"
             transform="translate(143.9817,641.4693)"><path
               d="M 0,0 C -1.051,1.154 -1.622,2.94 -1.716,5.36 L 2.279,6.035 C 2.316,4.59 2.518,3.526 2.883,2.842 3.25,2.157 3.799,1.815 4.53,1.815 c 0.543,0 0.937,0.173 1.181,0.52 0.244,0.347 0.366,0.793 0.366,1.336 0,0.901 -0.201,1.665 -0.605,2.293 C 5.069,6.593 4.436,7.281 3.573,8.032 L 1.21,10.086 c -0.957,0.844 -1.679,1.692 -2.166,2.546 -0.488,0.853 -0.732,1.927 -0.732,3.221 0,1.857 0.553,3.287 1.66,4.29 1.107,1.004 2.635,1.505 4.586,1.505 2.044,0 3.465,-0.595 4.263,-1.786 0.796,-1.191 1.251,-2.705 1.363,-4.543 L 6.162,14.728 c -0.038,1.182 -0.169,2.063 -0.395,2.645 -0.225,0.58 -0.665,0.872 -1.321,0.872 -0.545,0 -0.962,-0.189 -1.253,-0.563 -0.29,-0.376 -0.435,-0.834 -0.435,-1.378 0,-0.77 0.169,-1.407 0.506,-1.913 0.338,-0.507 0.853,-1.07 1.547,-1.689 L 7.118,10.677 C 8.225,9.665 9.082,8.637 9.693,7.596 10.302,6.555 10.607,5.331 10.607,3.925 10.607,2.837 10.363,1.866 9.875,1.013 9.387,0.159 8.698,-0.511 7.807,-0.998 6.916,-1.486 5.89,-1.73 4.727,-1.73 2.626,-1.73 1.051,-1.154 0,0"
               style="fill:#006246;fill-opacity:1;fill-rule:nonzero;stroke:none"
               id="path44" /></g><g
             id="g46"
             transform="translate(102.185,637.9688)"><path
               d="M 0,0 H 4.642 V -9.285 H 8.665 V 0 h 4.642 V -22.788 H 8.665 v 10.154 H 4.642 V -22.733 H 0 Z"
               style="fill:#006246;fill-opacity:1;fill-rule:nonzero;stroke:none"
               id="path48" /></g><g
             id="g50"
             transform="translate(118.9805,637.9688)"><path
               d="M 0,0 H 9.931 L 9.103,-3.207 H 4.614 v -6.049 h 4.107 v -3.236 H 4.614 v -7.145 h 4.489 l 0.884,-3.151 H 0 Z"
               style="fill:#006246;fill-opacity:1;fill-rule:nonzero;stroke:none"
               id="path52" /></g><g
             id="g54"
             transform="translate(171.8586,637.955)"><path
               d="M 0,0 H 9.931 L 9.102,-3.207 H 4.614 v -6.049 h 4.107 v -3.235 H 4.614 v -7.146 h 4.488 l 0.885,-3.151 H 0 Z"
               style="fill:#006246;fill-opacity:1;fill-rule:nonzero;stroke:none"
               id="path56" /></g><g
             id="g58"
             transform="translate(163.9653,630.3524)"><path
               d="M 0,0 4.614,1.091 V -15.171 H 0 Z"
               style="fill:#006246;fill-opacity:1;fill-rule:nonzero;stroke:none"
               id="path60" /></g><g
             id="g62"
             transform="translate(163.9653,637.9688)"><path
               d="M 0,0 H 4.614 V -4.343 L 0,-5.434 Z"
               style="fill:#006246;fill-opacity:1;fill-rule:nonzero;stroke:none"
               id="path64" /></g><g
             id="g66"
             transform="translate(200.4997,616.6016)"><path
               d="M 0,0 C -1.051,1.154 -1.622,2.939 -1.717,5.36 L 2.279,6.035 C 2.316,4.59 2.518,3.526 2.883,2.842 3.249,2.157 3.798,1.814 4.53,1.814 c 0.543,0 0.937,0.174 1.181,0.521 0.244,0.346 0.366,0.792 0.366,1.336 0,0.901 -0.202,1.665 -0.605,2.293 C 5.068,6.593 4.436,7.281 3.573,8.032 L 1.21,10.086 c -0.957,0.844 -1.679,1.692 -2.167,2.546 -0.487,0.853 -0.731,1.927 -0.731,3.221 0,1.857 0.553,3.287 1.66,4.29 1.107,1.003 2.635,1.505 4.586,1.505 2.044,0 3.464,-0.595 4.262,-1.786 0.796,-1.191 1.252,-2.705 1.364,-4.544 l -4.023,-0.59 c -0.038,1.181 -0.169,2.063 -0.394,2.644 -0.225,0.581 -0.665,0.872 -1.321,0.872 -0.545,0 -0.963,-0.188 -1.253,-0.562 -0.291,-0.376 -0.435,-0.835 -0.435,-1.378 0,-0.771 0.168,-1.408 0.506,-1.914 0.337,-0.507 0.852,-1.069 1.547,-1.688 L 7.117,10.676 C 8.224,9.664 9.082,8.637 9.692,7.596 10.302,6.555 10.607,5.331 10.607,3.925 10.607,2.837 10.362,1.866 9.875,1.013 9.386,0.159 8.698,-0.511 7.807,-0.999 6.916,-1.486 5.889,-1.73 4.727,-1.73 2.626,-1.73 1.05,-1.154 0,0"
               style="fill:#006246;fill-opacity:1;fill-rule:nonzero;stroke:none"
               id="path68" /></g><g
             id="g70"
             transform="translate(135.9449,634.8458)"><path
               d="M 0,0 H 1.603 C 2.634,0 3.348,-0.263 3.741,-0.787 4.136,-1.312 4.333,-2.138 4.333,-3.263 4.333,-4.407 4.112,-5.247 3.671,-5.781 2.386,-7.339 0,-8.106 0,-8.106 Z M 9.031,-19.664 5.925,-8.712 c 1.536,1.437 2.768,3.356 2.768,5.814 0,2.213 -0.619,3.771 -1.857,4.671 -1.238,0.9 -3.085,1.35 -5.542,1.35 H -4.614 V -19.664 H 0 v 7.511 c 0,0 0.925,0.294 2.166,0.907 l 2.111,-8.418 z"
               style="fill:#006246;fill-opacity:1;fill-rule:nonzero;stroke:none"
               id="path72" /></g><g
             id="g74"
             transform="translate(188.6705,634.8458)"><path
               d="m 0,0 h 1.603 c 1.031,0 1.745,-0.263 2.138,-0.788 0.395,-0.524 0.592,-1.35 0.592,-2.475 0,-1.144 -0.221,-1.984 -0.662,-2.518 C 2.386,-7.339 0,-8.106 0,-8.106 Z M 9.031,-19.664 5.925,-8.712 c 1.536,1.437 2.768,3.356 2.768,5.814 0,2.213 -0.619,3.77 -1.857,4.671 -1.238,0.9 -3.085,1.35 -5.542,1.35 H -4.614 V -19.664 H 0 v 7.511 c 0,0 0.925,0.294 2.166,0.907 l 2.111,-8.418 z"
               style="fill:#006246;fill-opacity:1;fill-rule:nonzero;stroke:none"
               id="path76" /></g><g
             id="g78"
             transform="translate(156.0462,619.2886)"><path
               d="M 0,0 C -0.461,-0.563 -1.252,-0.844 -2.377,-0.844 H -3.7 v 6.992 c 0.744,0.137 1.659,0.377 2.603,0.729 C 0.026,6.293 0.689,3.826 0.689,2.673 0.689,1.453 0.459,0.562 0,0 m -3.7,15.502 h 0.872 c 1.106,0 1.922,-0.222 2.448,-0.662 C 0.145,14.399 0.407,13.673 0.407,12.66 0.407,9.987 -3.7,9.189 -3.7,9.189 Z M 2.189,8.678 c 1.313,1.056 2.27,2.46 2.27,4.291 0,2.157 -0.615,3.648 -1.843,4.473 -1.229,0.825 -2.94,1.238 -5.134,1.238 H -8.314 V -4.108 h 6.809 c 2.156,0 3.802,0.539 4.937,1.618 1.134,1.078 1.702,2.715 1.702,4.909 0,3.082 -1.376,5.093 -2.945,6.259"
               style="fill:#006246;fill-opacity:1;fill-rule:nonzero;stroke:none"
               id="path80" /></g><g
             id="g82"
             transform="translate(162.0569,641.5975)"><path
               d="M 0,0 C 0.799,0 1.38,0.156 1.739,0.468 2.098,0.78 2.321,1.203 2.411,1.74 2.498,2.275 2.542,3.086 2.542,4.17 v 5.351 c 0,0.935 -0.057,1.651 -0.172,2.146 -0.115,0.495 -0.357,0.861 -0.722,1.099 -0.367,0.237 -0.936,0.355 -1.709,0.355 H -1.302 V 0 Z m -3.601,14.83 h 3.58 c 1.777,0 3.035,-0.407 3.774,-1.22 0.739,-0.814 1.108,-2.082 1.108,-3.804 V 3.744 C 4.861,1.926 4.499,0.574 3.774,-0.315 3.047,-1.203 1.844,-1.647 0.163,-1.647 h -3.764 z"
               style="fill:#006246;fill-opacity:1;fill-rule:nonzero;stroke:none"
               id="path84" /></g><g
             id="g86"
             transform="translate(168.7369,656.4274)"><path
               d="M 0,0 H 6.388 L 5.796,-1.708 H 2.299 V -7.16 H 5.615 V -8.788 H 2.299 v -6.042 h 3.497 l 0.633,-1.647 H 0 Z"
               style="fill:#006246;fill-opacity:1;fill-rule:nonzero;stroke:none"
               id="path88" /></g><g
             id="g90"
             transform="translate(176.9472,641.0485)"><path
               d="M 0,0 C -0.726,0.855 -1.129,2.028 -1.211,3.52 L 0.824,4.069 C 0.892,3.011 1.098,2.156 1.445,1.506 1.789,0.855 2.362,0.529 3.163,0.529 3.76,0.529 4.211,0.695 4.515,1.028 4.821,1.36 4.974,1.838 4.974,2.462 4.974,3.126 4.831,3.679 4.546,4.12 4.262,4.56 3.807,5.065 3.183,5.635 L 0.417,8.076 c -0.556,0.502 -0.96,1.034 -1.211,1.597 -0.251,0.563 -0.376,1.244 -0.376,2.045 0,1.22 0.352,2.159 1.058,2.817 0.705,0.658 1.674,0.987 2.909,0.987 1.288,0 2.251,-0.346 2.888,-1.037 0.638,-0.693 1.025,-1.764 1.16,-3.215 L 4.892,10.741 c -0.068,0.936 -0.244,1.672 -0.529,2.208 -0.284,0.535 -0.786,0.803 -1.506,0.803 -1.314,0 -1.972,-0.604 -1.972,-1.811 0,-0.487 0.081,-0.892 0.244,-1.21 C 1.291,10.412 1.57,10.07 1.963,9.704 L 4.749,7.263 C 5.469,6.598 6.042,5.896 6.468,5.157 6.896,4.418 7.11,3.58 7.11,2.645 7.11,1.438 6.744,0.481 6.011,-0.224 5.279,-0.929 4.329,-1.281 3.163,-1.281 1.78,-1.281 0.725,-0.854 0,0"
               style="fill:#006246;fill-opacity:1;fill-rule:nonzero;stroke:none"
               id="path92" /></g><g
             id="g94"
             transform="translate(106.7989,659.7141)"><path
               d="M 0,0 H 1.604 C 2.635,0 3.348,-0.263 3.742,-0.788 4.136,-1.313 4.333,-2.139 4.333,-3.264 4.333,-4.408 4.112,-5.247 3.671,-5.782 2.386,-7.339 0,-8.106 0,-8.106 Z m 5.925,-8.712 c 1.536,1.437 2.768,3.355 2.768,5.814 0,2.213 -0.619,3.77 -1.857,4.67 C 5.599,2.673 3.751,3.123 1.294,3.123 H -4.614 V -19.665 H 0 v 7.512 c 0,0 4.389,2.004 5.925,3.441"
               style="fill:#006246;fill-opacity:1;fill-rule:nonzero;stroke:none"
               id="path96" /></g><g
             id="g98"
             transform="translate(129.5451,587.5364)"><path
               d="M 0,0 C 1.63,1.495 3.221,3.036 4.714,4.591 V 24.815 H 0 Z"
               style="fill:#e0bc6f;fill-opacity:1;fill-rule:nonzero;stroke:none"
               id="path100" /></g><g
             id="g102"
             transform="translate(125.143,702.1736)"><path
               d="M 0,0 C -1.578,-0.879 -3.149,-1.708 -4.714,-2.494 V -36.228 H 0 Z"
               style="fill:#e0bc6f;fill-opacity:1;fill-rule:nonzero;stroke:none"
               id="path104" /></g><g
             id="g106"
             transform="translate(138.6602,597.154)"><path
               d="m 0,0 c 2.253,2.871 3.947,5.669 4.714,8.187 v 7.01 H 0 Z"
               style="fill:#e0bc6f;fill-opacity:1;fill-rule:nonzero;stroke:none"
               id="path108" /></g><g
             id="g110"
             transform="translate(134.2588,707.7771)"><path
               d="M 0,0 C -1.57,-1.061 -3.143,-2.071 -4.714,-3.032 V -41.831 H 0 Z"
               style="fill:#e0bc6f;fill-opacity:1;fill-rule:nonzero;stroke:none"
               id="path112" /></g><g
             id="g114"
             transform="translate(116.0278,697.5723)"><path
               d="M 0,0 C -1.585,-0.721 -3.157,-1.397 -4.714,-2.031 V -31.627 H 0 Z"
               style="fill:#e0bc6f;fill-opacity:1;fill-rule:nonzero;stroke:none"
               id="path116" /></g><g
             id="g118"
             transform="translate(111.3141,573.5693)"><path
               d="M 0,0 C 1.235,0.712 2.856,1.764 4.714,3.071 V 38.782 H 0 Z"
               style="fill:#e0bc6f;fill-opacity:1;fill-rule:nonzero;stroke:none"
               id="path120" /></g><g
             id="g122"
             transform="translate(120.4292,579.8864)"><path
               d="M 0,0 C 1.523,1.172 3.112,2.446 4.714,3.791 V 32.464 H 0 Z"
               style="fill:#e0bc6f;fill-opacity:1;fill-rule:nonzero;stroke:none"
               id="path124" /></g><g
             id="g126"
             transform="translate(93.083,582.5477)"><path
               d="m 0,0 c 1.607,-1.265 3.195,-2.448 4.714,-3.527 v 111.87 C 3.105,107.888 1.533,107.477 0,107.104 Z"
               style="fill:#e0bc6f;fill-opacity:1;fill-rule:nonzero;stroke:none"
               id="path128" /></g><g
             id="g130"
             transform="translate(102.1982,576.0505)"><path
               d="M 0,0 C 1.886,-1.202 3.51,-2.138 4.714,-2.743 V 36.3 H 0 Z"
               style="fill:#e0bc6f;fill-opacity:1;fill-rule:nonzero;stroke:none"
               id="path132" /></g><g
             id="g134"
             transform="translate(102.1982,665.9457)"><path
               d="M 0,0 H 4.714 V 27.897 C 3.12,27.314 1.547,26.776 0,26.277 Z"
               style="fill:#e0bc6f;fill-opacity:1;fill-rule:nonzero;stroke:none"
               id="path136" /></g><g
             id="g138"
             transform="translate(138.6602,665.9457)"><path
               d="M 0,0 H 4.714 V 48.621 C 3.15,47.341 1.578,46.117 0,44.948 Z"
               style="fill:#e0bc6f;fill-opacity:1;fill-rule:nonzero;stroke:none"
               id="path140" /></g><g
             id="g142"
             transform="translate(74.8523,603.8721)"><path
               d="M 0,0 C 0.906,-2.696 2.577,-5.479 4.714,-8.224 V 83.273 C 3.024,83.059 1.447,82.898 0,82.779 Z"
               style="fill:#e0bc6f;fill-opacity:1;fill-rule:nonzero;stroke:none"
               id="path144" /></g><g
             id="g146"
             transform="translate(83.9671,590.6534)"><path
               d="M 0,0 C 1.498,-1.53 3.088,-3.02 4.714,-4.448 V 98.011 C 3.081,97.676 1.508,97.385 0,97.135 Z"
               style="fill:#e0bc6f;fill-opacity:1;fill-rule:nonzero;stroke:none"
               id="path148" /></g></g></g></g></g></svg>
