<?xml version="1.0" encoding="UTF-8" standalone="no"?>
<!-- Created with Inkscape (http://www.inkscape.org/) -->

<svg
   width="26"
   height="26"
   viewBox="0 0 0.27083333 0.27083333"
   version="1.1"
   id="svg1"
   inkscape:version="1.3 (0e150ed6c4, 2023-07-21)"
   sodipodi:docname="logo_26.svg"
   xmlns:inkscape="http://www.inkscape.org/namespaces/inkscape"
   xmlns:sodipodi="http://sodipodi.sourceforge.net/DTD/sodipodi-0.dtd"
   xmlns="http://www.w3.org/2000/svg"
   xmlns:svg="http://www.w3.org/2000/svg">
  <sodipodi:namedview
     id="namedview1"
     pagecolor="#ffffff"
     bordercolor="#000000"
     borderopacity="0.25"
     inkscape:showpageshadow="2"
     inkscape:pageopacity="0.0"
     inkscape:pagecheckerboard="0"
     inkscape:deskcolor="#d1d1d1"
     inkscape:document-units="mm"
     inkscape:zoom="23.443407"
     inkscape:cx="5.7372207"
     inkscape:cy="10.727963"
     inkscape:window-width="2560"
     inkscape:window-height="1369"
     inkscape:window-x="-8"
     inkscape:window-y="-8"
     inkscape:window-maximized="1"
     inkscape:current-layer="g18" />
  <defs
     id="defs1">
    <inkscape:path-effect
       effect="fillet_chamfer"
       id="path-effect14"
       is_visible="true"
       lpeversion="1"
       nodesatellites_param="F,0,0,1,0,30,0,1 @ F,0,0,1,0,0,0,1 @ F,0,0,1,0,30,0,1 @ F,0,0,1,0,21.016058,0,1 @ F,0,0,1,0,0,0,1 @ F,0,0,1,0,15,0,1"
       radius="0"
       unit="px"
       method="auto"
       mode="F"
       chamfer_steps="1"
       flexible="false"
       use_knot_distance="true"
       apply_no_radius="true"
       apply_with_radius="true"
       only_selected="false"
       hide_knots="false" />
  </defs>
  <g
     inkscape:label="Calque 1"
     inkscape:groupmode="layer"
     id="layer1">
    <g
       inkscape:groupmode="layer"
       id="g18"
       inkscape:label="Copie de Calque 2"
       style="display:inline"
       transform="matrix(5.6035739e-4,0,0,5.6046804e-4,-2.4456968,-2.3102954)">
      <g
         id="g1">
        <g
           id="g15"
           transform="rotate(-44.999999,7389.1296,-2941.0811)"
           style="display:inline;fill:#006045;fill-opacity:1">
          <path
             style="fill:#006045;fill-opacity:1"
             d="M 21.931946,316.6119 C 49.122681,422.06769 144.61039,497.87901 256,497.97656 c 111.44383,-0.0319 207.00716,-75.8588 234.21065,-181.36465 4.1341,-16.03368 -7.75149,-29.43808 -24.32003,-29.43808 h -49.80229 c -11.60685,0 -22.93002,9.27517 -27.09341,20.09844 C 368.09821,361.5959 315.61924,398.56376 256,398.59375 194.46872,398.40596 140.62638,358.8887 121.32766,301.61337 118.68364,293.76635 110.57529,287.17383 102.29102,287.17383 H 46.251953 c -16.568542,0 -28.454131,13.4044 -24.320007,29.43807 z"
             id="path12"
             inkscape:original-d="M 16.251953,287.17383 A 241.97639,241.97639 0 0 0 256,497.97656 241.97639,241.97639 0 0 0 495.89062,287.17383 H 395.07227 A 142.59323,142.59323 0 0 1 256,398.59375 142.59323,142.59323 0 0 1 117.29102,287.17383 Z"
             inkscape:path-effect="#path-effect14" />
          <path
             style="display:inline;fill:#d8b568;fill-opacity:1;stroke:none;stroke-width:0.617287"
             d="M 61.748986,389.13702 C 54.234896,387.11765 50.271854,383.06254 43.390141,370.35168 17.015846,321.63707 8.3385391,263.76174 19.191256,208.95156 26.776138,170.64513 43.057101,135.70853 67.806557,104.6301 75.449569,95.032608 95.169177,75.305175 104.67205,67.749976 142.41014,37.746557 185.6393,20.268934 234.26032,15.357205 c 10.56306,-1.067087 35.72224,-0.892954 46.2965,0.320431 35.42373,4.064837 68.25961,14.710953 96.11023,31.161063 9.22982,5.451642 13.08947,11.37197 13.12788,20.136912 0.0245,5.590665 -1.10109,9.257888 -4.35771,14.197595 -1.11915,1.697539 -11.00834,12.013406 -21.97598,22.924154 -14.74013,14.66366 -20.74617,20.23637 -23.0276,21.36619 -4.71182,2.3334 -9.04463,3.1343 -15.05021,2.78196 -4.64832,-0.27272 -6.37274,-0.74327 -13.65363,-3.72581 -16.48638,-6.75346 -29.35664,-9.73485 -47.2218,-10.9389 -39.40255,-2.65559 -79.07659,12.00072 -107.65337,39.76911 -27.09063,26.32428 -41.99052,60.18162 -43.10362,97.94526 -0.65078,22.07891 2.42788,38.87325 11.06249,60.34671 3.75449,9.33708 4.57879,13.93232 3.57098,19.90727 -1.50516,8.92361 -2.63929,10.39108 -25.72775,33.28933 -17.030368,16.89007 -21.50337,20.99895 -24.332092,22.35137 -6.289193,3.00687 -10.703099,3.52539 -16.575652,1.94717 z"
             id="path15"
             transform="rotate(45,256.07129,256)" />
        </g>
        <path
           d="m 4602.4608,4130.0902 c -4.6305,0.023 -9.2596,0.1451 -13.8828,0.4063 -7.2108,0.452 -14.3716,1.5 -21.4922,2.6953 -1.6153,0.2651 -3.1842,0.5739 -4.8496,0.8809 -18.216,3.5022 -36.0407,9.0878 -52.9258,16.7793 -1.3728,0.6323 -2.9555,1.3589 -4.3945,2.0585 -10.7878,5.1707 -21.2431,11.2613 -31.0625,17.9766 -3.4332,2.3483 -6.6855,4.7091 -10.0117,7.2324 -4.2953,3.2036 -8.386,6.6701 -12.2949,10.334 -5.3937,5.0176 -10.7275,10.2555 -15.8711,15.6055 -5.6648,5.846 -11.17,11.9664 -16.0274,18.5742 -2.9217,3.9183 -5.7764,7.9306 -8.4414,11.9609 -2.214,3.3435 -4.4358,6.8929 -6.5058,10.4063 -5.1495,8.7322 -9.7843,17.9033 -13.7637,27.293 -1.7535,4.1364 -3.3515,8.2241 -4.8652,12.4687 -1.3491,3.7744 -2.5925,7.5729 -3.752,11.4707 -1.1648,3.9124 -2.2074,7.7665 -3.1797,11.7754 -0.088,0.3606 -0.1562,0.7268 -0.2422,1.0879 28.8971,-96.2918 118.2673,-166.4802 224.0918,-166.4805 47.1119,1e-4 90.9371,13.9569 127.6524,37.8848 0.5757,-1.4597 0.9638,-2.9926 1.0351,-4.5703 0.2003,-3.2828 -0.3298,-6.7999 -2.4785,-9.4121 -2.7708,-3.2687 -6.6764,-5.4158 -10.4199,-7.4844 -5.4689,-3.0807 -11.0812,-5.9076 -16.8047,-8.4844 -3.5628,-1.5953 -7.3229,-3.1772 -11.0293,-4.6035 -9.3495,-3.6232 -19.0568,-6.6446 -28.8516,-9.0547 -4.8095,-1.1884 -9.8868,-2.2811 -14.7578,-3.1797 -10.228,-1.8722 -20.5776,-3.2734 -30.9863,-3.4316 -4.6272,-0.1361 -9.2582,-0.2123 -13.8887,-0.1895 z"
           style="display:inline;opacity:0.274;fill:#ffffff;stroke-width:0.617287"
           id="path22" />
        <path
           d="m 4610.1566,4597.0174 c 4.6305,-0.023 9.2596,-0.1451 13.8828,-0.4063 7.2108,-0.452 14.3716,-1.5 21.4922,-2.6953 1.6153,-0.2651 3.1843,-0.5738 4.8496,-0.8808 18.216,-3.5022 36.0407,-9.0879 52.9258,-16.7793 1.3729,-0.6324 2.9555,-1.359 4.3945,-2.0586 10.7878,-5.1707 21.2431,-11.2612 31.0625,-17.9766 3.4332,-2.3483 6.6855,-4.7091 10.0117,-7.2324 4.2953,-3.2036 8.386,-6.67 12.295,-10.334 5.3936,-5.0176 10.7274,-10.2555 15.871,-15.6055 5.6648,-5.846 11.17,-11.9664 16.0274,-18.5742 2.9217,-3.9183 5.7765,-7.9306 8.4414,-11.9609 2.214,-3.3434 4.4358,-6.8929 6.5059,-10.4063 5.1494,-8.7322 9.7842,-17.9033 13.7636,-27.2929 1.7535,-4.1364 3.3515,-8.2242 4.8653,-12.4688 1.349,-3.7744 2.5924,-7.5729 3.7519,-11.4707 1.1648,-3.9124 2.2074,-7.7665 3.1797,-11.7754 0.088,-0.3606 0.1562,-0.7268 0.2422,-1.0879 -28.897,96.2918 -118.2673,166.4803 -224.0918,166.4805 -47.1119,-1e-4 -90.9371,-13.9569 -127.6523,-37.8848 -0.5758,1.4597 -0.9639,2.9926 -1.0352,4.5703 -0.2003,3.2829 0.3298,6.7999 2.4785,9.4121 2.7708,3.2687 6.6764,5.4158 10.4199,7.4844 5.469,3.0807 11.0812,5.9076 16.8047,8.4844 3.5628,1.5953 7.323,3.1772 11.0293,4.6035 9.3495,3.6233 19.0568,6.6446 28.8516,9.0547 4.8095,1.1884 9.8868,2.2811 14.7578,3.1797 10.228,1.8722 20.5777,3.2734 30.9863,3.4316 4.6273,0.1361 9.2582,0.2123 13.8887,0.1895 z"
           style="display:inline;opacity:0.274;fill:#ffffff;stroke-width:0.617287"
           id="path22-8" />
      </g>
    </g>
  </g>
</svg>
